<svg xmlns="http://www.w3.org/2000/svg" viewBox="0 0 64 64" id="Location"><path fill="#404040" d="M34.366 4.377c-2.016 0-3.958.191-5.77.567l-1.044.217.57.901c.52.822.923 1.586 1.229 2.336l.227.553.588-.106a22.033 22.033 0 0 1 2.654-.309v10.396a27.942 27.942 0 0 1-2.27-.123l-.586-.058-.186.559a9.908 9.908 0 0 1-.587 1.393l-.499.976 1.092.095c.522.046 1.038.074 1.561.103l1.456.113v9.884H21.334l-.221.29c-.07.09-.135.182-.199.273-.054.076-.108.152-.172.237l-1.72 2.319h.003l-1.062 1.42.018.272a45.574 45.574 0 0 0 1.85 10.287l-5.039 1.923a24.855 24.855 0 0 1-5.26-13.266l-.018-.209-2.83-3.819-1.247-1.618-.087 2.09c-.019.453-.037.905-.037 1.358 0 16.02 13.034 29.053 29.054 29.053S63.42 49.451 63.42 33.431 50.386 4.377 34.366 4.377zM59.25 31.876h-8.364c-.175-4.261-.822-8.178-1.982-11.98l5.044-1.921a24.642 24.642 0 0 1 3.711 6.537 24.88 24.88 0 0 1 1.591 7.364zM45.965 46.229l-.346-.062c-2.72-.648-5.586-1.047-8.745-1.219l-.943-.074v-9.878h11.836c-.134 3.878-.74 7.657-1.802 11.233zM35.921 18.932V8.538c1.758.111 3.479.395 5.134.848.025.176.081.351.176.508a44.91 44.91 0 0 1 3.729 7.831c-3.104.741-6.068 1.136-9.039 1.207zm9.327-7.933a24.858 24.858 0 0 1 6.461 4.528 82.54 82.54 0 0 1-2.393.913l-1.145.418c-.051.017-.106.037-.193.061a8.703 8.703 0 0 0-.41-1.015l-.614-1.255a60.368 60.368 0 0 0-1.706-3.65zm-9.317 20.877v-9.879l.91-.072c3.2-.193 6.057-.591 8.701-1.212l.418-.077c1.067 3.579 1.675 7.36 1.808 11.24H35.931zM46.92 52.293l.655-1.363c.147-.322.293-.67.404-.983l.107.034c.047.014.093.026.191.068l1.033.374c.742.268 1.569.572 2.394.913a24.907 24.907 0 0 1-6.477 4.545 59.123 59.123 0 0 0 1.693-3.588zm-1.959-3.166a43.63 43.63 0 0 1-3.735 7.841 1.52 1.52 0 0 0-.174.507 24.541 24.541 0 0 1-5.13.842V47.94c2.958.063 5.922.453 9.039 1.187zm14.29-14.131c-.306 5.094-2.128 9.875-5.302 13.903L48.9 46.974c1.16-3.796 1.811-7.711 1.987-11.978h8.364zM32.821 47.94v10.377a24.48 24.48 0 0 1-5.137-.847 1.428 1.428 0 0 0-.183-.51c-1.564-2.636-2.784-5.201-3.729-7.833 3.135-.735 6.094-1.124 9.049-1.187zM23.5 55.874a24.872 24.872 0 0 1-6.47-4.536c.79-.325 1.589-.623 2.336-.902l1.119-.394c.092-.037.175-.069.268-.099l.065.164c.105.269.226.574.364.86l.595 1.225a55.16 55.16 0 0 0 1.723 3.682zm9.3-20.878v9.877l-.966.074c-3.089.172-5.942.571-8.697 1.214l-.359.073a44.967 44.967 0 0 1-1.804-11.238H32.8z" class="color2d3e50 svgShape"></path><path fill="#767676" d="M27.397 12.026C26.055 5.058 18.963.443 11.624 1.732 5.254 2.846.593 8.204.581 14.943c.023 2.184.843 4.664 2.488 6.876 3.337 4.495 6.685 8.984 10.028 13.478.585.781 1.433.781 2.018.005 3.343-4.495 6.702-8.978 10.022-13.478 2.185-2.96 2.948-6.248 2.26-9.798zm-13.285 10.53c-4.501 0-8.15-3.475-8.15-7.762 0-4.287 3.649-7.762 8.15-7.762s8.15 3.475 8.15 7.762c-.001 4.287-3.65 7.762-8.15 7.762z" class="color2e79be svgShape"></path></svg>