<svg xmlns="http://www.w3.org/2000/svg" enable-background="new 0 0 100 100" viewBox="0 0 100 100" id="Motivation"><path fill="#f59e0b" d="M24.921 11.604c-.018 1.192.091 3.632.243 4.789.173 1.324.789 3.568 2.965 3.733 1.862.138 3.084-1.523 3.483-3.179.292-1.224.818-3.599.979-4.754.128-.904-.134-1.814-.738-2.564-.687-.854-1.711-1.393-2.811-1.476-.102-.008-.202-.012-.302-.012C26.691 8.141 24.941 9.727 24.921 11.604zM18.371 34.743c-.314 5.547-1.137 20.094-1.155 20.608 0 1.031.544 3.91 3.027 4.419 4.598.944 15.937 3.033 16.051 3.054.482.089.883.424 1.056.882l5.296 14.032 2.815-.722-3.481-16.953-12.871-6.528c-.548-.278-.851-.88-.747-1.486l2.151-12.497-2.885-4.081c-.446-.631-.296-1.505.335-1.951.63-.446 1.504-.297 1.951.335l3.635 5.141 2.583 3.117L46.67 47.87l.565-.923L37.378 39c-.196-.158-.345-.366-.433-.602l-2.581-6.936c-.021-.043-.039-.087-.055-.132-.897-2.527-3.315-4.226-6.019-4.226h-4.72c-1.935 0-4.941 2.239-5.066 5.613L18.371 34.743z" class="colorffffff svgShape"></path><circle cx="71.536" cy="30.629" r="15.362" fill="#f59e0b" class="colorffffff svgShape"></circle><circle cx="71.536" cy="30.629" r="15.362" fill="#0284c7" class="color4080ff svgShape"></circle><polygon fill="#f59e0b" points="71.312 39.002 63.58 32.645 66.12 29.555 70.407 33.081 77.293 22.562 80.64 24.752" class="colorffffff svgShape"></polygon><path fill="#494949" d="M34.036,7.873c-1.17-1.456-2.914-2.371-4.781-2.513c-3.822-0.299-7.095,2.615-7.134,6.208c-0.02,1.313,0.093,3.867,0.267,5.189c0.476,3.631,2.543,5.934,5.528,6.16c0.149,0.011,0.297,0.017,0.442,0.017h0c2.806,0,5.207-2.143,5.977-5.334c0.317-1.327,0.853-3.759,1.029-5.018C35.602,10.906,35.13,9.233,34.036,7.873z M32.592,12.192c-0.161,1.155-0.687,3.531-0.979,4.754c-0.399,1.656-1.622,3.317-3.483,3.179c-2.176-0.165-2.792-2.409-2.965-3.733c-0.152-1.156-0.261-3.596-0.243-4.789c0.02-1.877,1.77-3.464,3.82-3.464c0.1,0,0.2,0.004,0.302,0.012c1.1,0.083,2.124,0.621,2.811,1.476C32.458,10.378,32.72,11.288,32.592,12.192z" class="color494949 svgShape"></path><path fill="#f59e0b" d="M14.612 42.547l.554-.731c.119-2.111.238-4.206.343-6.074l-2.698 3.868L8.198 53.795l1.147.338 5.107-11.317C14.496 42.721 14.549 42.63 14.612 42.547zM18.16 72.259l-5.718 17.517h2.79l8.137-16.043 2.336-10.042c-2.309-.44-4.524-.869-6.026-1.178-.263-.054-.494-.142-.733-.222l-.721 9.637C18.217 72.042 18.195 72.152 18.16 72.259z" class="colorffffff svgShape"></path><path fill="#b3e5ff" d="M70.762,58.531v9.376H50.574v9.377h-2.2l0.098,0.476c0.15,0.731-0.3,1.452-1.023,1.638l-5.321,1.365c-0.117,0.03-0.233,0.044-0.349,0.044c-0.57,0-1.1-0.351-1.309-0.906l-0.988-2.618h-9.126v9.377H19.952L17.34,91.81c-0.238,0.47-0.721,0.767-1.249,0.767h-5.579c-0.448,0-0.87-0.215-1.133-0.578c-0.263-0.363-0.337-0.831-0.198-1.257l1.332-4.081H5.053v8h33.303v-9.377h20.219v-9.377h20.188v-9.376l16.217-0.001v-8L70.762,58.531z" class="colorb3ccff svgShape"></path><path fill="#494949" d="M34.147,44.107c0.113,0.136,0.251,0.25,0.407,0.335l11.943,6.524c0.654,0.357,1.476,0.139,1.866-0.498l1.902-3.109c0.367-0.6,0.232-1.379-0.315-1.82l-10.515-8.478l-2.49-6.692c-0.013-0.035-0.027-0.069-0.043-0.103c-1.328-3.572-4.771-5.961-8.611-5.961h-4.72c-2.763,0-5.85,2.136-7.186,5.287l-5.99,8.586c-0.079,0.113-0.14,0.237-0.183,0.368L5.09,54.298c-0.117,0.36-0.083,0.751,0.093,1.085s0.48,0.583,0.843,0.69l3.698,1.091c0.131,0.039,0.265,0.058,0.396,0.058c0.539,0,1.045-0.313,1.276-0.825l3.37-7.467c-0.202,3.597-0.349,6.269-0.349,6.385c0,1.349,0.452,3.554,1.855,5.198l-0.826,11.037l-6.264,19.19c-0.139,0.426-0.065,0.894,0.198,1.257c0.264,0.363,0.685,0.578,1.133,0.578h5.579c0.527,0,1.01-0.296,1.249-0.767l8.603-16.961c0.051-0.101,0.089-0.207,0.115-0.316l2.401-10.32c2.768,0.521,5.317,0.994,6.55,1.222l5.46,14.466c0.209,0.555,0.739,0.906,1.309,0.906c0.115,0,0.232-0.015,0.349-0.044l5.321-1.365c0.723-0.186,1.173-0.906,1.023-1.638l-3.886-18.921c-0.086-0.418-0.358-0.774-0.738-0.967l-12.551-6.367l1.545-8.974L34.147,44.107z M14.612,42.547c-0.063,0.083-0.117,0.174-0.16,0.27L9.346,54.134l-1.147-0.338l4.613-14.186l2.698-3.868c-0.105,1.868-0.224,3.963-0.343,6.074L14.612,42.547z M23.369,73.733l-8.137,16.043h-2.79l5.718-17.517c0.035-0.107,0.057-0.218,0.065-0.33l0.719-9.611c0.234,0.077,0.479,0.143,0.735,0.196c1.502,0.309,3.717,0.738,6.026,1.178L23.369,73.733z M27.628,35.472l2.885,4.081l-2.151,12.497c-0.104,0.605,0.199,1.208,0.747,1.486l12.871,6.528l3.481,16.953l-2.815,0.722L37.35,63.707c-0.173-0.458-0.574-0.793-1.056-0.882c-0.114-0.021-11.453-2.11-16.051-3.054c-2.482-0.51-3.026-3.388-3.027-4.419c0.018-0.514,0.84-15.061,1.155-20.608l0.135-2.026c0.125-3.374,3.131-5.613,5.066-5.613h4.72c2.703,0,5.122,1.698,6.019,4.226c0.016,0.045,0.034,0.089,0.055,0.132l2.581,6.936c0.088,0.236,0.237,0.444,0.433,0.602l9.857,7.947L46.67,47.87l-10.538-5.757l-2.583-3.117l-3.635-5.141c-0.447-0.632-1.321-0.781-1.951-0.335C27.332,33.967,27.182,34.84,27.628,35.472z" class="color494949 svgShape"></path></svg>