<svg xmlns="http://www.w3.org/2000/svg" width="24" height="24" fill="none" viewBox="0 0 24 24" id="graduate"><path fill="#fff" d="M7.83139 11.3701C7.64152 11.136 7.35614 11 7.05468 11C6.21309 11 5.74789 11.9762 6.27797 12.6299L9.73675 16.8951C10.9314 18.3683 13.0687 18.3683 14.2633 16.8951L21.7768 7.62986C22.1246 7.20089 22.0589 6.57115 21.6299 6.22329C21.2009 5.87543 20.5712 5.94118 20.2233 6.37014L12.7099 15.6353C12.3157 16.1215 11.6844 16.1215 11.2902 15.6354L7.83139 11.3701Z"></path><path fill="#f59e0b" d="M3.77674 6.37014C3.42888 5.94118 2.79914 5.87543 2.37018 6.22329C1.94121 6.57115 1.87546 7.20089 2.22332 7.62986L3.84518 9.62986C4.03505 9.864 4.32043 10 4.62189 10C5.46348 10 5.92868 9.02382 5.3986 8.37014L3.77674 6.37014Z"></path></svg>