<svg xmlns="http://www.w3.org/2000/svg" viewBox="0 0 66 66" id="Calendar"><path d="M5.875 63.079h54.25A4.88 4.88 0 0 0 65 58.204V11.633a4.88 4.88 0 0 0-4.875-4.875h-2.212C57.45 4.569 55.51 2.92 53.19 2.92a4.846 4.846 0 0 0-4.732 3.837h-4.002c-.463-2.189-2.403-3.837-4.723-3.837a4.846 4.846 0 0 0-4.732 3.837h-4.003c-.462-2.189-2.402-3.837-4.722-3.837a4.847 4.847 0 0 0-4.733 3.837h-4.002c-.463-2.189-2.403-3.837-4.723-3.837a4.846 4.846 0 0 0-4.732 3.837H5.875A4.88 4.88 0 0 0 1 11.633v46.57a4.88 4.88 0 0 0 4.875 4.876zm54.25-2H5.875A2.878 2.878 0 0 1 3 58.204V18.377h60v39.827a2.878 2.878 0 0 1-2.875 2.875zM53.19 4.92c1.208 0 2.233.766 2.64 1.837h-5.287A2.838 2.838 0 0 1 53.19 4.92zm-13.457 0c1.208 0 2.233.766 2.64 1.836h-5.287a2.838 2.838 0 0 1 2.647-1.836zm-13.457 0c1.207 0 2.232.766 2.638 1.836h-5.286a2.838 2.838 0 0 1 2.648-1.836zm-13.458 0c1.208 0 2.233.766 2.64 1.836H10.17a2.838 2.838 0 0 1 2.647-1.836zM3 11.633a2.878 2.878 0 0 1 2.875-2.875h2.21a4.844 4.844 0 0 0 4.733 3.833v-2a2.837 2.837 0 0 1-2.648-1.833h11.372a4.844 4.844 0 0 0 4.734 3.833v-2a2.837 2.837 0 0 1-2.65-1.833H35a4.844 4.844 0 0 0 4.734 3.833v-2a2.837 2.837 0 0 1-2.65-1.833h11.373a4.844 4.844 0 0 0 4.734 3.833v-2a2.837 2.837 0 0 1-2.65-1.833h9.584A2.878 2.878 0 0 1 63 11.633v4.744H3v-4.744z" fill="#404040" class="color000000 svgShape"></path><path d="M29.762 21.984h-7.7a1 1 0 0 0-1 1V30.3a1 1 0 0 0 1 1h7.7a1 1 0 0 0 1-1v-7.317a1 1 0 0 0-1-1zm-1 7.317h-5.7v-5.317h5.7V29.3zm15.175-7.317h-7.7a1 1 0 0 0-1 1V30.3a1 1 0 0 0 1 1h7.7a1 1 0 0 0 1-1v-7.317a1 1 0 0 0-1-1zm-1 7.317h-5.7v-5.317h5.7V29.3zm15.175-7.317h-7.699a1 1 0 0 0-1 1V30.3a1 1 0 0 0 1 1h7.7a1 1 0 0 0 1-1v-7.317a1 1 0 0 0-1-1zm-1 7.317h-5.699v-5.317h5.7V29.3zm-41.526 5.675h-7.7a1 1 0 0 0-1 1v7.317a1 1 0 0 0 1 1h7.7a1 1 0 0 0 1-1v-7.317a1 1 0 0 0-1-1zm-1 7.317h-5.7v-5.317h5.7v5.317zm15.176-7.317h-7.7a1 1 0 0 0-1 1v7.317a1 1 0 0 0 1 1h7.7a1 1 0 0 0 1-1v-7.317a1 1 0 0 0-1-1zm-1 7.317h-5.7v-5.317h5.7v5.317zm15.175-7.317h-7.7a1 1 0 0 0-1 1v7.317a1 1 0 0 0 1 1h7.7a1 1 0 0 0 1-1v-7.317a1 1 0 0 0-1-1zm-1 7.317h-5.7v-5.317h5.7v5.317zm15.175-7.317h-7.699a1 1 0 0 0-1 1v7.317a1 1 0 0 0 1 1h7.7a1 1 0 0 0 1-1v-7.317a1 1 0 0 0-1-1zm-1 7.317h-5.699v-5.317h5.7v5.317zm-41.526 5.675h-7.7a1 1 0 0 0-1 1v7.317a1 1 0 0 0 1 1h7.7a1 1 0 0 0 1-1v-7.317a1 1 0 0 0-1-1zm-1 7.317h-5.7v-5.317h5.7v5.317zm15.176-7.317h-7.7a1 1 0 0 0-1 1v7.317a1 1 0 0 0 1 1h7.7a1 1 0 0 0 1-1v-7.317a1 1 0 0 0-1-1zm-1 7.317h-5.7v-5.317h5.7v5.317z" fill="#404040" class="color000000 svgShape"></path></svg>