<svg xmlns="http://www.w3.org/2000/svg" enable-background="new 0 0 496 496" viewBox="0 0 496 496" id="Reliability"><polygon fill="#e1b05c" points="248 220.15 178.67 220.15 193.55 255.74 193.56 255.74 248 255.74 302.44 255.74 302.45 255.74 317.33 220.15" class="colore15c63 svgShape"></polygon><path fill="#e1b05c" d="M434.22,374.94c-13.62-16.93-32.9-29.45-55.47-34.66l-4.5-44.3l-0.01-0.01l-35.51,7.88v0.01
		l4.15,40.87H248h-94.88l4.15-40.87v-0.01l-35.51-7.88l-0.01,0.01l-4.5,44.3c-45.15,10.42-77.08,50.08-77.08,95.76V496H248h207.83
		v-59.96C455.83,413.2,447.85,391.86,434.22,374.94z" class="colore15c63 svgShape"></path><path fill="#f59e0b" d="M496 0v20.08l-28.54 55.58c-18.715-6.633-27.098-23.536-24.01-51.84L455.68 0H496zM423.06 63.53c13.036 12.561 22.34 28.621 24.01 51.84l-20.38 39.7c-12.455-9.466-20.381-26.881-24.01-51.84L423.06 63.53z" class="colore58e1a svgShape"></path><polygon fill="#d88d0e" points="443.45 23.82 467.46 75.66 447.07 115.37 423.06 63.53" class="colord87c0e svgShape"></polygon><polygon fill="#d88d0e" points="402.68 103.23 379.07 149.2 419.39 169.28 426.69 155.07" class="colord87c0e svgShape"></polygon><path fill="#d88d0e" d="M345.37 264.15c3.336 21.083-1.105 34.622-18.35 35.74-13.44-6.69-22.02-19.1-24.22-32.7C319.828 254.064 334.219 252.189 345.37 264.15zM369.83 216.51c13.872 9.154 23.546 23.405 28.09 43.89l-10.2 19.86c-3.21 6.25-7.72 11.44-13.04 15.4-16.222-8.706-25.934-21.116-25.24-39.45l3.181-33.91L369.83 216.51z" class="colord87c0e svgShape"></path><path fill="#f59e0b" d="M365.75 224.45l-16.31 31.76c1.176 4.908 1.663 9.201-4.07 7.94l-42.57 3.04c-.62-3.76-.75-7.61-.35-11.45.53-5.3 2.05-10.6 4.64-15.64l6.11-11.91C329.224 216.084 347.011 216.806 365.75 224.45zM380.02 196.65c-17.046.826-21.348 7.061-10.19 19.86l28.09 43.89 10.19-19.85c2.36-4.6 3.83-9.41 4.48-14.24C406.801 209.766 398.288 196.8 380.02 196.65z" class="colore58e1a svgShape"></path><path fill="#efa426" d="M349.44 256.21l25.24 39.45c-.14.11-.29.22-.44.31-7.77 5.65-17.22 8.71-26.87 8.71-2.88 0-5.77-.27-8.64-.83-3.98-.76-7.91-2.07-11.71-3.96l18.35-35.74L349.44 256.21zM336.46 188.4c-3.57 3.38-6.63 7.4-8.99 12l-10.14 19.75-4.13 8.04 52.55-3.74 4.08-7.94 10.19-19.86C369.55 182.903 354.626 181.25 336.46 188.4z" class="coloref9d26 svgShape"></path><path fill="#f9af32" d="M410.8,162.92c5.93,24.453,4.204,44.098-4.46,59.38c-1.61-1.45-3.03-3.15-4.19-5.07
		c-4.29-7.11-11.21-15.14-22.13-20.58c-4.51-2.24-8.97-3.68-13.24-4.54c-7.369-13.613-5.437-28.603,3.35-44.6
		c2.92,0.41,5.91,0.97,8.94,1.69c6.91,1.64,14.08,4.14,21.34,7.75C404.12,158.8,407.58,160.8,410.8,162.92z" class="colorf9b132 svgShape"></path><path fill="#ffc25a" d="M441.14 194.75c7.66 12.82.47 29.3-14.21 32.8-4.92 1.18-9.94.66-14.34-1.24-2.28-.98-4.4-2.33-6.25-4.01 1.49-19.79 2.97-39.59 4.46-59.38 3.08 2.02 5.94 4.15 8.59 6.36C429.12 177.34 436.13 186.37 441.14 194.75zM370.13 147.51c-1.11 14.86-2.23 29.73-3.35 44.6-6.09-1.23-11.8-1.29-16.7-.81-.75.07-1.5.11-2.25.11-4.07 0-7.98-1.07-11.37-3.01-4.17-2.36-7.56-6.03-9.51-10.63-5.83-13.72 3.37-29.19 18.4-30.71C352.76 146.31 361.15 146.24 370.13 147.51z" class="colorffc05a svgShape"></path><path fill="#347393" d="M72.94 63.53l20.38 39.7c-2.103 28.812-9.153 47.956-24.01 51.84l-20.38-39.7C45.134 84.114 54.997 69.037 72.94 63.53zM40.32 0l12.23 23.82c3.475 38.735-2.355 60.077-24.01 51.84L0 20.08V0H40.32z" class="color349370 svgShape"></path><polygon fill="#0284c7" points="52.55 23.82 72.94 63.53 48.93 115.37 28.54 75.66" class="color3fa07f svgShape"></polygon><polygon fill="#0284c7" points="93.32 103.23 69.31 155.07 76.61 169.28 116.93 149.2" class="color3fa07f svgShape"></polygon><path fill="#347393" d="M161.487 260.4l7.493 39.49c-3.8 1.89-7.73 3.2-11.71 3.96-2.87.56-5.76.83-8.64.83-9.65 0-19.1-3.06-26.87-8.71-.15-.09-.3-.2-.44-.31-2.171-23.387 5.394-37.357 25.24-39.45L161.487 260.4zM178.67 220.15l-10.14-19.75c-2.36-4.6-5.42-8.62-8.99-12-25.871-13.808-40.411-11.087-43.56 8.25l.95 25.65 13.32 2.15 52.55 3.74L178.67 220.15z" class="color349370 svgShape"></path><path fill="#0284c7" d="M150.63,264.15c11.15-9.339,25.542-7.639,42.57,3.04c-2.2,13.6-10.78,26.01-24.22,32.7
		L150.63,264.15z" class="color3fa07f svgShape"></path><path fill="#4a8daf" d="M193.55,255.74c0.4,3.84,0.27,7.69-0.35,11.45l-42.57-3.04l-4.07-7.94
		c-17.018-1.743-19.16-14.846-16.31-31.76l52.55,3.74l6.11,11.91C191.5,245.14,193.02,250.44,193.55,255.74z" class="color4aaf8f svgShape"></path><path fill="#0284c7" d="M146.56,256.21l-25.24,39.45c-5.32-3.96-9.83-9.15-13.04-15.4l-10.2-19.86
		c-3.183-24.832,8.955-37.206,28.09-43.89l4.08,7.94L146.56,256.21z" class="color3fa07f svgShape"></path><path fill="#4a8daf" d="M115.98,196.65c-18.839,1.844-34.141,7.25-32.57,29.66c0.65,4.83,2.12,9.64,4.48,14.24l10.19,19.85
		l28.09-43.89L115.98,196.65z" class="color4aaf8f svgShape"></path><path fill="#6faece" d="M150.65,147.06c15.03,1.52,24.23,16.99,18.4,30.71c-1.95,4.6-5.34,8.27-9.51,10.63
		c-3.39,1.94-7.3,3.01-11.37,3.01c-0.75,0-1.5-0.04-2.25-0.11c-4.9-0.48-10.61-0.42-16.7,0.81
		c-19.817-7.591-21.779-22.133-3.35-44.6C134.85,146.24,143.24,146.31,150.65,147.06z" class="color6fceae svgShape"></path><path fill="#5395b7" d="M125.87,147.51c1.11,14.86,2.23,29.73,3.35,44.6c-4.27,0.86-8.73,2.3-13.24,4.54
		c-10.92,5.44-17.84,13.47-22.13,20.58c-1.16,1.92-2.58,3.62-4.19,5.07c-13.297-14.688-15.621-34.124-4.46-59.38
		c3.22-2.12,6.68-4.12,10.39-5.97c7.26-3.61,14.43-6.11,21.34-7.75C119.96,148.48,122.95,147.92,125.87,147.51z" class="color53b79a svgShape"></path><path fill="#6faece" d="M85.2,162.92c1.49,19.79,2.97,39.59,4.46,59.38c-1.85,1.68-3.97,3.03-6.25,4.01
		c-4.4,1.9-9.42,2.42-14.34,1.24c-14.68-3.5-21.87-19.98-14.21-32.8c5.01-8.38,12.02-17.41,21.75-25.47
		C79.26,167.07,82.12,164.94,85.2,162.92z" class="color6fceae svgShape"></path><path fill="#d19f4b" d="M121.76 295.97c7.77 5.65 17.22 8.71 26.87 8.71 2.88 0 5.77-.27 8.64-.83v.01l-1.68 16.57c-23.29 5.52-35.64-6.73-35.64-6.73l1.8-17.72L121.76 295.97zM374.25 295.98l1.54 15.21c-15.82 12.74-35.44 8.6-35.44 8.6l-1.62-15.93v-.01c2.87.56 5.76.83 8.64.83 9.65 0 19.1-3.06 26.87-8.71L374.25 295.98z" class="colord14b62 svgShape"></path><path fill="#f2eee7" d="M241.436 448.368l-41.192-32.458 41.191-32.447c1.736-1.367 2.035-3.882.668-5.617-1.366-1.734-3.88-2.034-5.617-.668l-38.706 30.49V380.32c0-2.209-1.791-4-4-4s-4 1.791-4 4v71.189c0 2.209 1.791 4 4 4s4-1.791 4-4v-27.355l38.705 30.497c.733.578 1.606.858 2.473.858 1.183 0 2.355-.522 3.145-1.524C243.469 452.25 243.171 449.735 241.436 448.368zM302.22 411.91h-22.59c-2.209 0-4 1.791-4 4s1.791 4 4 4h18.435c-1.198 15.323-9.153 27.6-18.435 27.6-10.077 0-18.59-14.471-18.59-31.6 0-17.123 8.513-31.59 18.59-31.59 6.317 0 12.373 5.815 15.804 15.177.761 2.074 3.056 3.137 5.132 2.379 2.074-.761 3.14-3.059 2.379-5.133-4.618-12.597-13.552-20.423-23.316-20.423-14.91 0-26.59 17.39-26.59 39.59 0 22.205 11.68 39.6 26.59 39.6 14.911 0 26.59-17.395 26.59-39.6C306.22 413.701 304.429 411.91 302.22 411.91z" class="colore7f2f1 svgShape"></path></svg>